<svg width="39" height="39" viewBox="0 0 39 39" fill="none" xmlns="http://www.w3.org/2000/svg">
<path d="M35.5113 12.6979H26.4338V3.48377C26.4338 2.09565 25.3098 0.9646 23.9177 0.9646H13.9843C12.5979 0.9646 11.4682 2.08994 11.4682 3.48377V8.43642H15.3423V4.84332H22.5541V23.5343H19.3704V27.413H26.4281V16.5766H34.1477V23.5343H30.2851V27.413H35.5056C36.8921 27.413 38.0218 26.2877 38.0218 24.8938V15.217C38.0218 13.8289 36.8978 12.6979 35.5113 12.6979Z" fill="#247CFF"/>
<path d="M15.3479 35.1076V16.5766H18.5887V12.6979H11.4738V23.5286H3.87406V16.5766H7.67396V12.6979H2.51614C1.12399 12.6979 0 13.8289 0 15.217V24.8938C0 26.282 1.12399 27.413 2.51614 27.413H11.4738V36.4729C11.4738 37.861 12.5978 38.9921 13.99 38.9921H23.9233C25.3098 38.9921 26.4395 37.8667 26.4395 36.4729V31.2632H22.5654V35.1076H15.3479Z" fill="#247CFF"/>
</svg>
